{"title":"Murder 3 (2013) Hindi CAMRip","uid":8147474,"size":423397800,"categoryP":"video","categoryS":"movies","magnet":"?xt=urn:btih:70f96ba934318f08febaaa7f2566fe98bbe22e19&amp;dn=Murder+3+%282013%29+Hindi+CAMRip&amp;tr=udp%3A%2F%2Ftracker.openbittorrent.com%3A80&amp;tr=udp%3A%2F%2Fopen.demonii.com%3A1337&amp;tr=udp%3A%2F%2Ftracker.coppersurfer.tk%3A6969&amp;tr=udp%3A%2F%2Fexodus.desync.com%3A6969","seeders":1,"leechers":0,"uploader":"HDvideos","files":2,"time":1360959619,"description":"mastitorrents.com\n  &lt;a href=&quot;\nhttp://mastitorrents.com/forums/index.php&quot; rel=&quot;nofollow&quot; target=&quot;_NEW&quot;&gt;\nhttp://mastitorrents.com/forums/index.php&lt;/a&gt;\n  &lt;a href=&quot;\nhttp://thepiratebay.se/user/HDvideos/0/7&quot; rel=&quot;nofollow&quot; target=&quot;_NEW&quot;&gt;\nhttp://thepiratebay.se/user/HDvideos/0/7&lt;/a&gt;\n\nMurder 3 (2013) Hindi CAMRip\n\nGeneral\nFormat : MPEG-PS\nFile size : 404 MiB\nDuration : 1h 53mn\nOverall bit rate mode : Variable\nOverall bit rate : 499 Kbps\nVideo #224\nID : 224 (0xE0)\nFormat : MPEG Video\nFormat version : Version 2\nFormat profile : Main@Main\nFormat settings, BVOP : Yes\nFormat settings, Matrix : Default\nFormat settings, GOP : M=3, N=12\nDuration : 1h 53mn\nBit rate mode : Variable\nBit rate : 361 Kbps\nMaximum bit rate : 2 519 Mbps\nWidth : 352 pixels\nHeight : 288 pixels\nDisplay aspect ratio : 4:3\nFrame rate : 25.000 fps\nStandard : PAL\nColor space : YUV\nChroma subsampling : 4:2:0\nBit depth : 8 bits\nScan type : Progressive\nCompression mode : Lossy\nBits/(Pixel*Frame) : 0.143\nStream size : 292 MiB (72%)\n\nAudio #192\nID : 192 (0xC0)\nFormat : MPEG Audio\nFormat version : Version 1\nFormat profile : Layer 2\nDuration : 1h 53mn\nBit rate mode : Constant\nBit rate : 128 Kbps\nChannel(s) : 2 channels\nSampling rate : 44.1 KHz\nCompression mode : Lossy\nStream size : 104 MiB (26%)\n\nScreens: &lt;a href=&quot;\nhttp://imageshack.us/a/img37/7665/26240322.jpg&quot; rel=&quot;nofollow&quot; target=&quot;_NEW&quot;&gt;\nhttp://imageshack.us/a/img37/7665/26240322.jpg&lt;/a&gt;","torrent":{"xt":"urn:btih:70f96ba934318f08febaaa7f2566fe98bbe22e19","amp;dn":"Murder+3+%282013%29+Hindi+CAMRip","amp;tr":["udp%3A%2F%2Ftracker.openbittorrent.com%3A80","udp%3A%2F%2Fopen.demonii.com%3A1337","udp%3A%2F%2Ftracker.coppersurfer.tk%3A6969","udp%3A%2F%2Fexodus.desync.com%3A6969"],"infoHash":"70f96ba934318f08febaaa7f2566fe98bbe22e19","infoHashBuffer":{"type":"Buffer","data":[112,249,107,169,52,49,143,8,254,186,170,127,37,102,254,152,187,226,46,25]},"announce":[],"urlList":[]}}